<?xml version="1.0" encoding="UTF-8"?><svg id="Layer_1" xmlns="http://www.w3.org/2000/svg" viewBox="0 0 500 246.54"><path d="M.5,27.99C.5,12.67,12.91.27,28.22.27h211.38v72.77H.5V27.99Z"/><rect x=".5" y="86.9" width="239.1" height="72.77"/><path d="M.5,173.53h239.1v72.77H28.22c-15.32,0-27.72-12.41-27.72-27.72v-45.05Z"/><rect x="253.47" y=".27" width="72.77" height="72.77"/><path d="M426.73.27h45.05c15.32,0,27.72,12.41,27.72,27.72v45.05h-72.77V.27Z"/><polygon points="426.73 86.9 412.87 86.9 340.1 86.9 326.24 86.9 253.47 86.9 253.47 159.67 326.24 159.67 340.1 159.67 412.87 159.67 426.73 159.67 499.5 159.67 499.5 86.9 426.73 86.9"/><rect x="253.47" y="173.53" width="72.77" height="72.77"/><path d="M426.73,173.53h72.77v45.05c0,15.32-12.41,27.72-27.72,27.72h-45.05v-72.77Z"/></svg>